<svg width="500" height="88" viewBox="0 206 500 88" fill="none" xmlns="http://www.w3.org/2000/svg">
<g clip-path="url(#clip0_4413_228)">
<path d="M325.637 274.282C316.659 274.282 309.156 271.276 303.128 265.262C297.099 259.249 294.107 251.745 294.15 242.749C294.15 233.747 297.142 226.267 303.128 220.309C309.113 214.241 316.616 211.207 325.637 211.207C334.768 211.207 342.186 214.494 347.889 221.07L342.305 226.469C340.325 223.966 337.789 221.955 334.897 220.594C332.005 219.232 328.835 218.557 325.637 218.622C322.516 218.543 319.412 219.101 316.516 220.261C313.619 221.422 310.992 223.16 308.794 225.369C304.336 229.818 302.107 235.624 302.107 242.786C302.107 249.948 304.339 255.714 308.803 260.083C310.995 262.3 313.62 264.045 316.515 265.212C319.411 266.379 322.515 266.942 325.637 266.867C332.683 266.867 338.816 263.915 344.035 258.012L349.701 263.512C346.833 266.938 343.214 269.663 339.123 271.477C334.884 273.374 330.283 274.331 325.637 274.282ZM362.561 212.554V272.917H354.77V212.554H362.561ZM368.181 252.273C368.181 245.918 370.187 240.662 374.197 236.507C376.173 234.461 378.556 232.848 381.194 231.773C383.831 230.698 386.665 230.184 389.513 230.264C392.35 230.182 395.172 230.696 397.796 231.771C400.421 232.847 402.789 234.46 404.747 236.507C408.806 240.668 410.836 245.924 410.836 252.273C410.836 258.623 408.806 263.881 404.747 268.049C402.788 270.094 400.419 271.706 397.795 272.78C395.171 273.854 392.349 274.366 389.513 274.282C386.666 274.364 383.832 273.852 381.195 272.778C378.557 271.705 376.174 270.094 374.197 268.049C370.187 263.887 368.181 258.629 368.181 252.273ZM375.973 252.273C375.973 256.716 377.27 260.316 379.864 263.072C381.106 264.381 382.604 265.424 384.264 266.137C385.925 266.85 387.714 267.217 389.523 267.217C391.331 267.217 393.12 266.85 394.781 266.137C396.442 265.424 397.939 264.381 399.181 263.072C401.775 260.316 403.072 256.716 403.072 252.273C403.072 247.831 401.769 244.262 399.163 241.567C397.934 240.234 396.441 239.171 394.779 238.443C393.116 237.715 391.32 237.34 389.504 237.34C387.688 237.34 385.892 237.715 384.23 238.443C382.567 239.171 381.074 240.234 379.846 241.567C377.264 244.317 375.973 247.886 375.973 252.273ZM452.792 272.917H445.341V267.206H445.001C443.677 269.355 441.791 271.104 439.546 272.266C437.208 273.583 434.569 274.277 431.883 274.282C426.805 274.282 422.899 272.837 420.164 269.947C417.429 267.056 416.061 262.937 416.061 257.59V231.612H423.843V257.086C424.015 263.808 427.428 267.169 434.082 267.169C435.583 267.183 437.068 266.852 438.419 266.2C439.771 265.548 440.953 264.593 441.873 263.411C443.967 260.89 445.078 257.7 445.001 254.427V231.612H452.792V272.917ZM478.079 274.264C475.423 274.272 472.798 273.701 470.386 272.593C467.974 271.485 465.834 269.865 464.116 267.847C460.298 263.56 458.244 257.995 458.366 252.264C458.247 246.534 460.3 240.97 464.116 236.681C465.834 234.663 467.974 233.044 470.386 231.935C472.798 230.827 475.423 230.257 478.079 230.264C480.977 230.229 483.84 230.896 486.423 232.207C488.784 233.37 490.786 235.147 492.218 237.35H492.558L492.218 231.612V212.554H500V272.917H492.558V267.206H492.218C490.786 269.409 488.784 271.186 486.423 272.348C483.84 273.656 480.977 274.32 478.079 274.282V274.264ZM479.349 267.187C481.126 267.238 482.891 266.893 484.518 266.178C486.144 265.463 487.59 264.395 488.75 263.053C491.289 260.297 492.558 256.698 492.558 252.255C492.703 248.333 491.341 244.504 488.75 241.548C487.598 240.191 486.155 239.108 484.529 238.379C482.902 237.649 481.132 237.291 479.349 237.332C477.569 237.305 475.805 237.67 474.182 238.398C472.559 239.127 471.116 240.202 469.957 241.548C467.365 244.504 466.003 248.333 466.149 252.255C466.149 256.649 467.418 260.221 469.957 262.971C471.116 264.319 472.558 265.396 474.181 266.128C475.803 266.86 477.568 267.228 479.349 267.206V267.187Z" fill="#5F6368"/>
<path d="M34.7346 274.273C15.8587 274.273 0 258.947 0 240.137C0 221.327 15.8587 206 34.7346 206C39.0759 205.933 43.387 206.73 47.415 208.345C51.443 209.96 55.1068 212.36 58.1915 215.405L51.596 221.987C47.0766 217.638 41.0168 215.243 34.7346 215.323C31.4812 215.323 28.2604 215.968 25.2592 217.22C22.258 218.472 19.5363 220.305 17.2521 222.614C14.9679 224.922 13.1667 227.66 11.9532 230.668C10.7397 233.677 10.138 236.895 10.1831 240.137C10.1392 243.378 10.7418 246.595 11.9559 249.602C13.1699 252.609 14.9713 255.346 17.2554 257.654C19.5394 259.961 22.2608 261.794 25.2613 263.045C28.2619 264.296 31.482 264.941 34.7346 264.942C43.6666 264.942 48.7536 261.367 52.0099 258.122C54.6868 255.454 56.4346 251.623 57.1061 246.379H34.4863V237.057H66.2313C66.5909 238.976 66.7603 240.925 66.7372 242.878C66.7372 249.872 64.8146 258.534 58.6331 264.694C52.5987 270.937 44.9177 274.273 34.7346 274.273Z" fill="#4285F4"/>
<path d="M114.212 252.292C114.212 258.126 111.886 263.722 107.746 267.848C103.606 271.974 97.9902 274.292 92.1349 274.292C86.2797 274.292 80.6643 271.974 76.5241 267.848C72.3838 263.722 70.0579 258.126 70.0579 252.292C70.0579 246.451 72.3863 240.849 76.5308 236.719C80.6754 232.589 86.2966 230.269 92.1579 230.269C98.0192 230.269 103.64 232.589 107.785 236.719C111.93 240.849 114.258 246.451 114.258 252.292H114.212ZM104.535 252.292C104.535 244.381 98.7857 238.973 92.1165 238.973C85.4474 238.973 79.689 244.381 79.689 252.292C79.689 260.203 85.4474 265.583 92.1165 265.583C98.7857 265.583 104.535 260.083 104.535 252.292Z" fill="#EA4335"/>
<path d="M162.313 252.292C162.313 258.127 159.987 263.722 155.846 267.848C151.706 271.974 146.091 274.292 140.236 274.292C134.38 274.292 128.765 271.974 124.625 267.848C120.484 263.722 118.158 258.127 118.158 252.292C118.158 246.457 120.484 240.861 124.625 236.735C128.765 232.61 134.38 230.292 140.236 230.292C146.091 230.292 151.706 232.61 155.846 236.735C159.987 240.861 162.313 246.457 162.313 252.292ZM152.635 252.292C152.635 244.381 146.886 238.973 140.217 238.973C133.548 238.973 127.79 244.381 127.79 252.292C127.79 260.203 133.539 265.583 140.217 265.583C146.895 265.583 152.635 260.083 152.635 252.292Z" fill="#FBBC04"/>
<path d="M208.325 231.667V271.083C208.325 287.318 198.721 294 187.37 294C183.185 294.021 179.09 292.796 175.608 290.482C172.127 288.167 169.419 284.869 167.832 281.011L176.267 277.5C177.767 281.075 181.437 285.319 187.37 285.319C194.628 285.319 199.145 280.828 199.145 272.422V269.25H198.804C197.35 270.872 195.56 272.158 193.556 273.021C191.553 273.884 189.386 274.302 187.205 274.246C176.166 274.246 166.047 264.667 166.047 252.347C166.047 240.027 176.166 230.283 187.205 230.283C189.378 230.231 191.537 230.642 193.538 231.489C195.538 232.337 197.334 233.6 198.804 235.196H199.145V231.667H208.325ZM199.807 252.402C199.807 244.656 194.628 239 188.032 239C181.437 239 175.761 244.656 175.761 252.402C175.761 260.148 181.354 265.583 188.032 265.583C194.711 265.583 199.807 260.028 199.807 252.374V252.402Z" fill="#4285F4"/>
<path d="M224.975 208.328V272.917H215.251V208.328H224.975Z" fill="#34A853"/>
<path d="M262.515 259.533L270.03 264.529C268.013 267.544 265.276 270.013 262.065 271.714C258.854 273.415 255.269 274.294 251.633 274.273C239.113 274.273 229.758 264.612 229.758 252.273C229.758 239.202 239.196 230.273 250.547 230.273C261.899 230.273 267.574 239.348 269.414 244.262L270.444 246.792L241.008 258.947C243.262 263.365 246.767 265.611 251.697 265.611C256.628 265.611 260.013 263.2 262.515 259.533ZM239.389 251.622L259.093 243.464C258.008 240.714 254.751 238.798 250.906 238.798C249.3 238.872 247.724 239.264 246.272 239.951C244.819 240.638 243.518 241.607 242.446 242.801C241.374 243.995 240.551 245.39 240.026 246.905C239.501 248.42 239.285 250.023 239.389 251.622Z" fill="#EA4335"/>
</g>
<defs>
<clipPath id="clip0_4413_228">
<rect width="500" height="88" fill="white" transform="translate(0 206)"/>
</clipPath>
</defs>
</svg>
